<svg width="160" height="49" viewBox="0 0 160 49" fill="none" xmlns="http://www.w3.org/2000/svg">
<rect width="160" height="49" rx="6" fill="#222222"/>
<path d="M53.9922 31.1602H62.0781V33H51.7305V15.9375H53.9922V31.1602ZM76.9961 25.0195C76.9961 26.6914 76.7148 28.1523 76.1523 29.4023C75.5898 30.6445 74.793 31.5938 73.7617 32.25C72.7305 32.9062 71.5273 33.2344 70.1523 33.2344C68.8086 33.2344 67.6172 32.9062 66.5781 32.25C65.5391 31.5859 64.7305 30.6445 64.1523 29.4258C63.582 28.1992 63.2891 26.7812 63.2734 25.1719V23.9414C63.2734 22.3008 63.5586 20.8516 64.1289 19.5938C64.6992 18.3359 65.5039 17.375 66.543 16.7109C67.5898 16.0391 68.7852 15.7031 70.1289 15.7031C71.4961 15.7031 72.6992 16.0352 73.7383 16.6992C74.7852 17.3555 75.5898 18.3125 76.1523 19.5703C76.7148 20.8203 76.9961 22.2773 76.9961 23.9414V25.0195ZM74.7578 23.918C74.7578 21.8945 74.3516 20.3438 73.5391 19.2656C72.7266 18.1797 71.5898 17.6367 70.1289 17.6367C68.707 17.6367 67.5859 18.1797 66.7656 19.2656C65.9531 20.3438 65.5352 21.8438 65.5117 23.7656V25.0195C65.5117 26.9805 65.9219 28.5234 66.7422 29.6484C67.5703 30.7656 68.707 31.3242 70.1523 31.3242C71.6055 31.3242 72.7305 30.7969 73.5273 29.7422C74.3242 28.6797 74.7344 27.1602 74.7578 25.1836V23.918ZM92.9688 30.7617C92.3906 31.5898 91.582 32.2109 90.543 32.625C89.5117 33.0312 88.3086 33.2344 86.9336 33.2344C85.543 33.2344 84.3086 32.9102 83.2305 32.2617C82.1523 31.6055 81.3164 30.6758 80.7227 29.4727C80.1367 28.2695 79.8359 26.875 79.8203 25.2891V23.8008C79.8203 21.2305 80.418 19.2383 81.6133 17.8242C82.8164 16.4102 84.5039 15.7031 86.6758 15.7031C88.457 15.7031 89.8906 16.1602 90.9766 17.0742C92.0625 17.9805 92.7266 19.2695 92.9688 20.9414H90.7188C90.2969 18.6836 88.9531 17.5547 86.6875 17.5547C85.1797 17.5547 84.0352 18.0859 83.2539 19.1484C82.4805 20.2031 82.0898 21.7344 82.082 23.7422V25.1367C82.082 27.0508 82.5195 28.5742 83.3945 29.707C84.2695 30.832 85.4531 31.3945 86.9453 31.3945C87.7891 31.3945 88.5273 31.3008 89.1602 31.1133C89.793 30.9258 90.3164 30.6094 90.7305 30.1641V26.332H86.7812V24.5039H92.9688V30.7617ZM109.855 25.0195C109.855 26.6914 109.574 28.1523 109.012 29.4023C108.449 30.6445 107.652 31.5938 106.621 32.25C105.59 32.9062 104.387 33.2344 103.012 33.2344C101.668 33.2344 100.477 32.9062 99.4375 32.25C98.3984 31.5859 97.5898 30.6445 97.0117 29.4258C96.4414 28.1992 96.1484 26.7812 96.1328 25.1719V23.9414C96.1328 22.3008 96.418 20.8516 96.9883 19.5938C97.5586 18.3359 98.3633 17.375 99.4023 16.7109C100.449 16.0391 101.645 15.7031 102.988 15.7031C104.355 15.7031 105.559 16.0352 106.598 16.6992C107.645 17.3555 108.449 18.3125 109.012 19.5703C109.574 20.8203 109.855 22.2773 109.855 23.9414V25.0195ZM107.617 23.918C107.617 21.8945 107.211 20.3438 106.398 19.2656C105.586 18.1797 104.449 17.6367 102.988 17.6367C101.566 17.6367 100.445 18.1797 99.625 19.2656C98.8125 20.3438 98.3945 21.8438 98.3711 23.7656V25.0195C98.3711 26.9805 98.7812 28.5234 99.6016 29.6484C100.43 30.7656 101.566 31.3242 103.012 31.3242C104.465 31.3242 105.59 30.7969 106.387 29.7422C107.184 28.6797 107.594 27.1602 107.617 25.1836V23.918Z" fill="#F4F4F4"/>
</svg>
